HIERARCHY
ROOT Hips
{
 OFFSET 0.000000 0.000000 0.000000
 CHANNELS 6 Xposition Yposition Zposition Yrotation Xrotation Zrotation
 JOINT Chest
 {
  OFFSET 0.000000 9.585900 0.002600
  CHANNELS 3 Yrotation Xrotation Zrotation
  JOINT Chest2
  {
   OFFSET 0.000000 9.601200 -0.005300
   CHANNELS 3 Yrotation Xrotation Zrotation
   JOINT Chest3
   {
    OFFSET 0.000000 9.561800 0.000000
    CHANNELS 3 Yrotation Xrotation Zrotation
    JOINT Chest4
    {
     OFFSET 0.000000 9.552100 0.000000
     CHANNELS 3 Yrotation Xrotation Zrotation
     JOINT Neck
     {
      OFFSET 0.000000 14.453000 0.000000
      CHANNELS 3 Yrotation Xrotation Zrotation
      JOINT Head
      {
       OFFSET 0.000000 8.936500 -0.011300
       CHANNELS 3 Yrotation Xrotation Zrotation
       End Site
       {
        OFFSET 0.000000 17.073600 -0.006000
       }
      }
     }
     JOINT RightCollar
     {
      OFFSET -2.921100 9.558500 0.000000
      CHANNELS 3 Yrotation Xrotation Zrotation
      JOINT RightShoulder
      {
       OFFSET -13.519700 0.000000 0.000000
       CHANNELS 3 Yrotation Xrotation Zrotation
       JOINT RightElbow
       {
        OFFSET 0.000000 -29.696600 0.000000
        CHANNELS 3 Yrotation Xrotation Zrotation
        JOINT RightWrist
        {
         OFFSET 0.000000 -24.004700 0.000000
         CHANNELS 3 Yrotation Xrotation Zrotation
         End Site
         {
          OFFSET 0.000000 -17.728500 0.000000
         }
        }
       }
      }
     }
     JOINT LeftCollar
     {
      OFFSET 2.921100 9.558500 0.000000
      CHANNELS 3 Yrotation Xrotation Zrotation
      JOINT LeftShoulder
      {
       OFFSET 13.519700 0.000000 0.000000
       CHANNELS 3 Yrotation Xrotation Zrotation
       JOINT LeftElbow
       {
        OFFSET 0.000000 -29.696600 0.000000
        CHANNELS 3 Yrotation Xrotation Zrotation
        JOINT LeftWrist
        {
         OFFSET 0.000000 -24.004700 0.000000
         CHANNELS 3 Yrotation Xrotation Zrotation
         End Site
         {
          OFFSET 0.000000 -17.728500 0.000000
         }
        }
       }
      }
     }
    }
   }
  }
 }
 JOINT RightHip
 {
  OFFSET -7.771700 -0.012900 -0.001300
  CHANNELS 3 Yrotation Xrotation Zrotation
  JOINT RightKnee
  {
   OFFSET 0.000000 -40.869800 0.001200
   CHANNELS 3 Yrotation Xrotation Zrotation
   JOINT RightAnkle
   {
    OFFSET 0.000000 -39.717900 0.002100
    CHANNELS 3 Yrotation Xrotation Zrotation
    JOINT RightToe
    {
     OFFSET 0.000000 -4.965400 11.033500
     CHANNELS 3 Yrotation Xrotation Zrotation
     End Site
     {
      OFFSET 0.000000 -1.423100 5.872300
     }
    }
   }
  }
 }
 JOINT LeftHip
 {
  OFFSET 7.771700 -0.012900 -0.001300
  CHANNELS 3 Yrotation Xrotation Zrotation
  JOINT LeftKnee
  {
   OFFSET 0.000000 -40.869800 0.001200
   CHANNELS 3 Yrotation Xrotation Zrotation
   JOINT LeftAnkle
   {
    OFFSET 0.000000 -39.717900 0.002100
    CHANNELS 3 Yrotation Xrotation Zrotation
    JOINT LeftToe
    {
     OFFSET 0.000000 -4.965400 11.033500
     CHANNELS 3 Yrotation Xrotation Zrotation
     End Site
     {
      OFFSET 0.000000 -1.423100 5.872300
     }
    }
   }
  }
 }
}
MOTION
Frames: 11
Frame Time: 0.008333
0.000000 85.388000 0.000000 0.000000 -5.767877 0.000000 0.000000 11.653817 0.000000 0.000000 -5.885947 0.000000 0.000000 -0.000000 0.000000 0.000000 -0.000000 0.000000 0.000000 12.528835 0.000000 0.000000 0.711642 0.000000 0.000000 -0.000000 0.000000 0.000000 0.000000 -90.000000 0.000000 -2.309062 0.000000 0.000000 2.309062 0.000000 0.000000 -0.000000 0.000000 0.000000 -0.000000 90.000000 0.000000 -2.309062 0.000000 0.000000 2.309062 0.000000 0.000000 8.520406 0.000000 0.000000 1.905762 0.000000 -0.000000 -4.658285 0.000000 0.000000 -0.000000 0.000000 0.000000 8.520406 0.000000 0.000000 1.905762 0.000000 -0.000000 -4.658285 0.000000 0.000000 -0.000000 0.000000
-1.544675 52.085206 34.956906 169.368503 -37.845925 -2.014242 5.598834 23.137235 1.854857 0.730999 3.451060 0.310227 1.188556 5.557832 0.522323 4.500280 19.315035 2.401128 0.242833 17.985828 1.430256 -0.023050 -2.387328 2.551664 -5.473105 -2.660700 -6.172246 3.437829 -17.834280 1.569861 -118.526892 -50.685571 143.926132 -10.720132 -3.135516 21.251369 -9.453923 -0.482516 3.049764 0.790925 -23.560550 3.565012 87.915055 -38.762020 -127.772403 16.192082 -0.051782 -11.785496 -4.972243 -43.302641 4.193266 -155.525247 85.791802 -150.800505 0.100493 -11.842208 -3.912773 0.378609 -0.555355 0.164399 0.349416 -39.963273 6.957871 75.902389 83.257357 66.086025 -5.218468 -13.050833 9.388882 0.261515 1.643766 0.124040
-1.550826 52.083244 34.957165 169.382164 -37.889943 -1.997334 5.680706 23.263170 1.894405 0.746884 3.492671 0.314408 1.213648 5.620844 0.529384 4.563581 19.400101 2.422471 0.186705 17.927081 1.468547 -0.139912 -2.494792 2.641173 -5.502846 -2.666409 -6.230948 3.554432 -17.949805 1.596579 -118.421655 -50.815601 143.627211 -10.741774 -3.171750 20.780056 -9.637223 -0.484242 3.099432 0.588581 -23.792352 3.592805 87.563070 -38.509790 -127.249645 16.306215 -0.220286 -10.857806 -4.950684 -43.259110 4.128793 -156.127505 85.811009 -151.382961 0.087020 -11.855667 -3.928841 0.375636 -0.546433 0.162966 0.380335 -39.923898 6.900276 75.900978 83.243795 66.101680 -5.223379 -13.043915 9.384885 0.267644 1.639582 0.125419
-1.570397 52.078096 34.958841 169.450383 -37.909057 -1.936309 5.675907 23.371398 1.845911 0.761575 3.533826 0.319053 1.236727 5.683015 0.537140 4.619861 19.484025 2.445504 0.132751 17.880176 1.503331 -0.251571 -2.580164 2.723647 -5.525001 -2.667213 -6.291620 3.673402 -18.075912 1.620869 -118.271977 -50.943004 143.298584 -10.785072 -3.222560 20.295114 -9.792354 -0.485687 3.140327 0.367543 -24.025108 3.613069 87.217660 -38.261592 -126.722760 16.423718 -0.406798 -9.876639 -4.903422 -43.251707 3.933301 -157.065563 85.813292 -152.350626 0.208237 -11.907374 -3.866844 0.250693 -0.507286 0.106620 0.431484 -39.906938 6.740065 75.837513 83.221612 66.058327 -5.294737 -13.047684 9.357733 0.334339 1.666593 0.161407
-1.580724 52.081585 34.952206 169.497636 -38.009648 -1.906315 5.707727 23.556358 1.852838 0.775569 3.574695 0.323977 1.258625 5.744691 0.545359 4.671969 19.566880 2.469640 0.080344 17.843506 1.534936 -0.359208 -2.646576 2.799649 -5.546299 -2.664610 -6.348569 3.793084 -18.211861 1.641409 -118.090194 -51.062311 142.954113 -10.833885 -3.288617 19.791235 -9.928580 -0.491021 3.177182 0.140186 -24.255917 3.623100 86.876943 -38.026217 -126.199272 16.553277 -0.606241 -8.854524 -4.872977 -43.142981 3.816422 -157.686330 85.818019 -152.982140 0.261060 -11.964688 -3.841830 0.185122 -0.472272 0.078759 0.476677 -39.809084 6.624256 75.843385 83.200855 66.089387 -5.290173 -13.022166 9.351525 0.338111 1.642292 0.164259
-1.586783 52.082760 34.950643 169.571775 -38.080101 -1.921490 5.723540 23.709533 1.887339 0.788699 3.614565 0.329185 1.279185 5.804889 0.554116 4.719792 19.647190 2.495015 0.029798 17.816886 1.561274 -0.461589 -2.694467 2.865256 -5.567501 -2.656199 -6.401985 3.917456 -18.355399 1.658283 -117.893397 -51.172063 142.603090 -10.878393 -3.356989 19.268990 -10.048800 -0.497012 3.209856 -0.081821 -24.482475 3.619922 86.538550 -37.797956 -125.678541 16.687646 -0.808897 -7.808610 -4.893131 -43.043583 3.750738 -158.136744 85.840708 -153.442096 0.307987 -12.067435 -3.820725 0.122125 -0.388232 0.053188 0.467721 -39.743129 6.556276 75.839150 83.177787 66.104881 -5.296639 -13.012803 9.348255 0.342067 1.639712 0.163111
-1.597119 52.075898 34.959665 169.610257 -38.065084 -1.898749 5.743803 23.776563 1.892551 0.800809 3.652874 0.334754 1.298130 5.862683 0.563368 4.762983 19.723891 2.521837 -0.016045 17.800291 1.580568 -0.552859 -2.723846 2.916265 -5.583812 -2.641653 -6.453720 4.054703 -18.499887 1.672051 -117.700607 -51.276902 142.253879 -10.916616 -3.420043 18.742741 -10.152172 -0.499774 3.236035 -0.293709 -24.700910 3.603050 86.204021 -37.567121 -125.157813 16.812955 -0.998640 -6.758172 -4.884370 -43.070980 3.687259 -158.361042 85.839994 -153.668188 0.298861 -12.073877 -3.820998 0.127374 -0.381092 0.054396 0.491183 -39.759758 6.471729 75.759599 83.155170 66.044994 -5.352061 -13.038517 9.328647 0.381257 1.683155 0.181628
-1.596660 52.078683 34.959591 169.583784 -38.132632 -1.887713 5.834986 23.917316 1.957861 0.779762 3.633482 0.324517 1.349983 5.974736 0.588515 4.803929 19.797408 2.550278 -0.056146 17.791286 1.594516 -0.631447 -2.739138 2.955296 -5.595156 -2.626344 -6.500241 4.207337 -18.638264 1.683979 -117.522586 -51.381732 141.911729 -10.947491 -3.475785 18.223592 -10.243765 -0.501427 3.257985 -0.495101 -24.907527 3.575747 85.869253 -37.327581 -124.633130 16.910200 -1.169600 -5.719883 -4.871293 -42.999637 3.698261 -158.313663 85.846752 -153.626701 0.303070 -12.070999 -3.826983 0.125560 -0.381873 0.056750 0.520565 -39.693039 6.462075 75.730123 83.143548 66.025476 -5.327741 -13.013386 9.333186 0.364012 1.655618 0.167462
-1.599680 52.079178 34.962565 169.586664 -38.166559 -1.876408 5.883926 24.026616 1.991989 0.808514 3.697796 0.339101 1.349763 6.000878 0.589809 4.844189 19.868306 2.578480 -0.089876 17.787628 1.605539 -0.697136 -2.744771 2.986741 -5.601948 -2.610572 -6.537584 4.373776 -18.773421 1.699879 -117.364090 -51.487454 141.579931 -10.971650 -3.515652 17.718664 -10.323650 -0.503474 3.281595 -0.686296 -25.100543 3.539010 85.525584 -37.070133 -124.102262 16.965951 -1.315569 -4.693600 -4.871164 -42.965646 3.687616 -158.282080 85.848476 -153.604847 0.308809 -12.069839 -3.830060 0.121705 -0.382345 0.057553 0.535087 -39.655801 6.432526 75.666293 83.133800 65.963033 -5.316687 -13.020654 9.326259 0.356364 1.663511 0.171595
-1.606702 52.079966 34.964768 169.605616 -38.193739 -1.850373 5.897482 24.128278 1.990003 0.834515 3.761096 0.351982 1.350869 6.025486 0.591624 4.881304 19.936978 2.604028 -0.114691 17.790177 1.614475 -0.745695 -2.739242 3.011331 -5.600532 -2.590041 -6.565456 4.550084 -18.910928 1.724796 -117.215760 -51.596928 141.252916 -10.996022 -3.535080 17.242643 -10.385362 -0.503950 3.309077 -0.865400 -25.276330 3.489472 85.163440 -36.784455 -123.566837 16.988125 -1.427710 -3.668397 -4.868595 -42.941736 3.647794 -158.274653 85.843715 -153.616236 0.310526 -12.073169 -3.826595 0.123107 -0.383806 0.057336 0.549505 -39.620791 6.378265 75.579480 83.128615 65.876177 -5.355702 -13.039301 9.311760 0.394017 1.688863 0.190034
-1.607942 52.081636 34.967463 169.598731 -38.219961 -1.843523 5.937644 24.218164 2.020726 0.844203 3.794881 0.356902 1.365997 6.076245 0.599792 4.912995 20.003318 2.626291 -0.130062 17.799985 1.622528 -0.776435 -2.720380 3.031068 -5.589156 -2.564142 -6.586550 4.724494 -19.049777 1.762389 -117.058597 -51.716706 140.919721 -11.030846 -3.542111 16.813966 -10.429479 -0.502999 3.338695 -1.028795 -25.429290 3.425124 84.774439 -36.470543 -123.033299 16.997476 -1.511356 -2.637071 -4.896816 -42.912255 3.677565 -158.081033 85.844776 -153.455278 0.309464 -12.071143 -3.823697 0.125763 -0.383695 0.058770 0.550815 -39.589105 6.369326 75.467881 83.129997 65.770513 -5.362135 -13.045313 9.293717 0.411819 1.699708 0.198200
